<svg xmlns="http://www.w3.org/2000/svg" viewBox="0 0 400 400" fill="none" shape-rendering="auto"><metadata xmlns:rdf="http://www.w3.org/1999/02/22-rdf-syntax-ns#" xmlns:xsi="http://www.w3.org/2001/XMLSchema-instance" xmlns:dc="http://purl.org/dc/elements/1.1/" xmlns:dcterms="http://purl.org/dc/terms/"><rdf:RDF><rdf:Description><dc:title>Adventurer Neutral</dc:title><dc:creator>Lisa Wischofsky</dc:creator><dc:source xsi:type="dcterms:URI">https://www.figma.com/community/file/1184595184137881796</dc:source><dcterms:license xsi:type="dcterms:URI">https://creativecommons.org/licenses/by/4.0/</dcterms:license><dc:rights>Remix of „Adventurer Neutral” (https://www.figma.com/community/file/1184595184137881796) by „Lisa Wischofsky”, licensed under „CC BY 4.0” (https://creativecommons.org/licenses/by/4.0/)</dc:rights></rdf:Description></rdf:RDF></metadata><mask id="viewboxMask"><rect width="400" height="400" rx="0" ry="0" x="0" y="0" fill="#fff" /></mask><g mask="url(#viewboxMask)"><rect fill="#ecad80" width="400" height="400" x="0" y="0" /><g transform="translate(-279 -322)"><path d="m619.86 481.79 2.63 1.13c-.12 1-.28 2-.47 2.98-2.21 3.85-5.93 6.93-9 10.11a93.33 93.33 0 0 1-19.16 12.88 85.49 85.49 0 0 1-45.84 8.4c-19.45-1.64-38.43-9.82-54.2-21.1-1.4-1.13-2.88-1.98-2.47-4.04.53-2.48 3.96-3.31 6.1-2.45 21.22 6.28 42.64 6.72 64.56 5.45 16.26-1.55 32.06-4.27 47.52-9.68 3.54-1.21 6.78-2.8 10.33-3.68ZM440.55 492.43c2.8 1.36 2.2 4.42.14 6.19-10.83 9.97-25.3 16.29-39.72 18.8-7.78 1-15.1 2.3-22.95 1.12-13.82-1.06-27.27-5.1-39-12.53-2.16-1.4-4.68-2.9-6.2-5-.62-2.53.72-3.88 3.14-4.18 2.71.28 5.43 1.35 8.08 2.03 7.56 2.13 15.22 3.03 23 3.79 21.45 1.58 43.69-.86 64.16-7.53 2.94-.78 6.3-2.97 9.35-2.69Z" fill="#000"/></g><g transform="translate(-279 -322)"><path d="M606.99 397.59c1.52-.4 3.26.6 4.74.97-.11 1.2-.17 2.45-.47 3.61-1.58 1.5-3.57 2.6-5.39 3.78-22.77 14.6-46.18 28.4-70.32 40.63-11.53 5.73-23.34 11.3-35.55 15.44-6.86 2.19-13.72 4.28-21 3.44-3.32-.31-6.17-3.02-6.24-6.43-.04-4.22 3-8.6 5.08-12.15 1.28-2.68 4.5-3.04 7-4.12 37.23-13.75 74.43-27.65 111.66-41.45 3.48-1.23 6.9-2.81 10.5-3.72ZM338.99 432.64c29.88 5.94 60.13 12.03 90.02 18.02 2.27.32 4.6.07 6.85.45 2.45 2.3 3.64 6.2 4.54 9.37 1.17 4.09-.15 8.77-3.9 11-4 2.63-9.92 2.17-14.5 1.9-8.75-1-17.42-3.8-25.69-6.74-19.61-7.16-38.69-16.93-56.97-26.97-1.67-.96-3.68-1.94-4.79-3.55-.38-2.88 1.85-4.16 4.44-3.48Z" fill="#000"/></g><g transform="translate(-279 -322)"><path d="M495.22 560.98c15.47 1.86 31.27 5.52 44.44 14.2 7.06 4.63 13.5 11.35 15.37 19.82 2.36 8.6-3.62 18.23-11.69 21.37-7.22 3.03-14.02 1.8-21.35.17a152.7 152.7 0 0 0-18-1.84c-22.55-.95-45.13.85-67.18 5.75-5.75 1-11.12 3.3-16.8 3.7a20.3 20.3 0 0 1-16.8-8.4c-3.08-4.2-4.42-9.63-4.29-14.77.6-7.76 5.39-14.89 11.17-19.87 9.77-8.61 22.9-13.67 35.4-16.81a157.08 157.08 0 0 1 49.72-3.32Z" fill="#000"/><path d="M505.97 568.6c-10.26 7.5-23.3 11.5-35.8 12.93-14.13 1.18-28.18.17-41.5-5 8.87-4.75 19.45-6.96 29.28-8.74 16.06-2.16 32.07-2.4 48.02.81Z" fill="#fff"/><path d="M513.77 570.3c11.07 3.23 22.56 7.72 30.43 16.52 4.18 4.76 6.93 11.23 4 17.39-3 6.16-9.66 8.56-16.2 7.98-22.43-4.47-46.27-4.38-68.96-2.05-12.25 1.6-24.14 3.39-36.04 6.83-5.67 1.38-11.31 2.18-16.17-1.8-6.59-5.25-7.4-14.6-3.5-21.74 3.43-5.84 8.9-10.26 14.65-13.66 4.08 2.55 8.45 3.7 13.04 4.97 21.88 5.68 46.86 3.96 67-6.71 4.27-2.11 7.81-5.14 11.75-7.73Z" fill="#8F2E45"/></g><g transform="translate(-279 -322)"></g></g></svg>