<svg xmlns="http://www.w3.org/2000/svg" viewBox="0 0 400 400" fill="none" shape-rendering="auto"><metadata xmlns:rdf="http://www.w3.org/1999/02/22-rdf-syntax-ns#" xmlns:xsi="http://www.w3.org/2001/XMLSchema-instance" xmlns:dc="http://purl.org/dc/elements/1.1/" xmlns:dcterms="http://purl.org/dc/terms/"><rdf:RDF><rdf:Description><dc:title>Adventurer Neutral</dc:title><dc:creator>Lisa Wischofsky</dc:creator><dc:source xsi:type="dcterms:URI">https://www.figma.com/community/file/1184595184137881796</dc:source><dcterms:license xsi:type="dcterms:URI">https://creativecommons.org/licenses/by/4.0/</dcterms:license><dc:rights>Remix of „Adventurer Neutral” (https://www.figma.com/community/file/1184595184137881796) by „Lisa Wischofsky”, licensed under „CC BY 4.0” (https://creativecommons.org/licenses/by/4.0/)</dc:rights></rdf:Description></rdf:RDF></metadata><mask id="viewboxMask"><rect width="400" height="400" rx="0" ry="0" x="0" y="0" fill="#fff" /></mask><g mask="url(#viewboxMask)"><rect fill="#f2d3b1" width="400" height="400" x="0" y="0" /><g transform="translate(-279 -322)"><path d="m619.86 481.79 2.63 1.13c-.12 1-.28 2-.47 2.98-2.21 3.85-5.93 6.93-9 10.11a93.33 93.33 0 0 1-19.16 12.88 85.49 85.49 0 0 1-45.84 8.4c-19.45-1.64-38.43-9.82-54.2-21.1-1.4-1.13-2.88-1.98-2.47-4.04.53-2.48 3.96-3.31 6.1-2.45 21.22 6.28 42.64 6.72 64.56 5.45 16.26-1.55 32.06-4.27 47.52-9.68 3.54-1.21 6.78-2.8 10.33-3.68ZM440.55 492.43c2.8 1.36 2.2 4.42.14 6.19-10.83 9.97-25.3 16.29-39.72 18.8-7.78 1-15.1 2.3-22.95 1.12-13.82-1.06-27.27-5.1-39-12.53-2.16-1.4-4.68-2.9-6.2-5-.62-2.53.72-3.88 3.14-4.18 2.71.28 5.43 1.35 8.08 2.03 7.56 2.13 15.22 3.03 23 3.79 21.45 1.58 43.69-.86 64.16-7.53 2.94-.78 6.3-2.97 9.35-2.69Z" fill="#000"/></g><g transform="translate(-279 -322)"><path d="M530.99 353.9c17.06 1.95 34 7.42 48.62 16.5 6.84 4.33 13.98 9.93 18.27 16.9.9 1.17 1.25 3.53-.22 4.34-1.19 1.18-2.85.5-4.15-.1-16.36-8.83-35.52-13.28-53.92-15.02-13.52-.79-28.3-.86-41.16 3.86-2.92 1.03-5.5 2.98-8.47 3.85-1.37.25-2.43-1.11-2.88-2.26-1.81-4.7-2.23-10.24.18-14.8 2.6-5.35 7.91-8.65 13.31-10.66 9.68-3.6 20.27-3.32 30.42-2.61ZM414.04 408.09c8.18 2.36 14.6 10.77 13.54 19.42-1.87.56-3.6 1-5.58.73-14.22-1.45-29.3 1.52-42.82 5.85-14.05 4.67-28.5 11.6-39.42 21.77-1.34 1.3-4.25 2.95-5.5.75-1.73-2.36.02-4.07 1.38-5.97 12.84-16.22 29.69-30.97 48.9-39.03 8.9-3.65 20.04-6.5 29.5-3.53Z" fill="#000"/></g><g transform="translate(-279 -322)"><path d="M519 572.72c12.29.18 24.45 2.02 35.94 6.5a92.61 92.61 0 0 1 43.87 34.94c1.14 1.53.8 3.58.95 5.41-7.22.57-14.43-.04-21.67.76.12 7.4 0 14.39-3.75 21.02-2.2 3.77-5.7 7.2-10.34 7.12-4.5-.03-8.23-3.43-10.38-7.1-3.71-6.4-4.2-13.83-4.46-21.04-25.38.12-50.77.29-76.16.43-7.35-.26-14.65.67-22 .42-7.53-.2-14.18.78-21.52-.74.07-1.62-.5-4.04.59-5.37 22.4-25.3 54.86-41.81 88.93-42.35Z" fill="#000"/><path d="M508.98 579.48a152.3 152.3 0 0 1 21.04-.02 88.9 88.9 0 0 1 48.66 20.86c-11.23.4-22.44.62-33.68.58-30.98 1.14-62 .83-92.97 1.81 6.13-4.2 12.16-8.37 18.84-11.68a112.4 112.4 0 0 1 38.1-11.54Z" fill="#8F2E45"/><path d="M569 606.4c5.17 0 10.56-.64 15.68.04 2.37 2.05 4.27 4.7 6.31 7.09-5.88.61-11.88.05-17.7.77-1.23 7.11-.33 16.61-3.6 23.41-1.15 2.7-3.33 4.05-5.67 5.57-2.32-1.57-4.53-2.89-5.74-5.56-3.42-6.8-3.33-15.68-4.08-23.16-5.72-.52-11.4-.06-17.2-.19-32.79.26-65.57.28-98.36.54 2.11-2.04 4.57-5.6 7.5-6.24 17.96-.7 35.91-.24 53.86-1.1 11-.5 22-.08 33-.59 12-.24 24-.08 36-.57Z" fill="#6FA942"/></g><g transform="translate(-279 -322)"></g></g></svg>