<svg xmlns="http://www.w3.org/2000/svg" viewBox="0 0 600 600" fill="none" shape-rendering="auto"><metadata xmlns:rdf="http://www.w3.org/1999/02/22-rdf-syntax-ns#" xmlns:xsi="http://www.w3.org/2001/XMLSchema-instance" xmlns:dc="http://purl.org/dc/elements/1.1/" xmlns:dcterms="http://purl.org/dc/terms/"><rdf:RDF><rdf:Description><dc:title>Lorelei Neutral</dc:title><dc:creator>Lisa Wischofsky</dc:creator><dc:source xsi:type="dcterms:URI">https://www.figma.com/community/file/1198749693280469639</dc:source><dcterms:license xsi:type="dcterms:URI">https://creativecommons.org/publicdomain/zero/1.0/</dcterms:license><dc:rights>Remix of „Lorelei Neutral” (https://www.figma.com/community/file/1198749693280469639) by „Lisa Wischofsky”, licensed under „CC0 1.0” (https://creativecommons.org/publicdomain/zero/1.0/)</dc:rights></rdf:Description></rdf:RDF></metadata><mask id="viewboxMask"><rect width="600" height="600" rx="0" ry="0" x="0" y="0" fill="#fff" /></mask><g mask="url(#viewboxMask)"><rect fill="#ffffff" width="600" height="600" x="0" y="0" /><g transform="translate(-246 -234)"><path d="M524 402c7 3 12 9 15 16 4 6 6 12 4 19-1 2-2 5-4 3-3-2-5-6-6-9l-14 2-26 3-39 4c-12 1-24 0-36-1-3 0-7-1-9-3-3-2-2-7 1-8 9-3 20-2 30-4 7-1 14-4 20-6 9-3 17-7 26-9l20-5c5-1 12-4 18-2ZM631 404c11 0 19 6 30 8 6 2 14 1 20 5 2 1 3 4 2 7-2 2-5 2-8 2l-14 1-25 6-23 2-5 18-3 3-2-5c-1-10 0-21 5-30 2-4 4-9 8-12 4-4 10-6 15-5Z" fill="#000000"/></g><g transform="translate(-246 -234)"><path d="m693 510-2 7c-3 5-6 9-11 12s-11 4-17 5l-18 2c-5 0-8 3-10 6l-7 7c-2 1-5-1-4-3 1-8 7-14 11-20 3-3 7-7 12-7l30-5c5-1 10-4 16-4ZM388 514c12-1 21 3 32 4 15 2 30 4 45 4l24 2c8 1 17 0 24 4s12 10 16 16c1 2 2 4 0 7-1 1-3 0-4-1-4-2-7-6-11-7l-12-1-28-1-22-1c-10-1-20-1-30-5-7-2-12-6-19-9l-12-9c-2-1-3-1-3-3Z" fill="#000000"/></g><g transform="translate(-246 -234)"></g><g transform="translate(-246 -234)"><path fill-rule="evenodd" clip-rule="evenodd" d="M661 646c3 3 6 8 7 12 3 5 4 11 3 17l-4-5-1-2-10-15-1-1v-1c-1-2-2-3-1-5 2-2 4-1 7 0Zm-30 25a40 40 0 0 1 29 13c3 4 7 7 8 10 2 4 2 8-2 10-5 4-13 5-20 5a5207 5207 0 0 1-42 1l-28 3-18 1-10 2-19 1c1-3 2-4 5-5l5-6 4-3c7-7 17-12 26-17l2-1c10-5 21-9 31-11 10-3 19-4 29-3Zm-6 29c-1-7 1-14 4-20-11-1-22 0-32 3l-1 11-1 7 30-1Zm11-19 1 1 4 1c6 2 11 7 15 12l3 3c-6 2-12 2-19 2h-10c4-6 6-12 6-19Zm-48 20c-1-5 0-10 1-15a254 254 0 0 0-43 21c10-3 21-4 31-5l11-1Z" fill="#000000"/></g><g transform="translate(-246 -234)"><path d="M607 606c0 3-2 6-4 9-4 6-11 10-18 12-5 1-9-2-13 0-4 0-8 1-12-1-2-1-2-4 0-6 3-4 8-7 12-7 4-1 7-1 10 2l1 7c5-2 7-5 11-8l13-8Z" fill="#000000"/></g><g transform="translate(-246 -234)"><path fill-rule="evenodd" clip-rule="evenodd" d="M485 464c18 2 36 4 53 10a1666 1666 0 0 0 38 10c5 1 10 2 15 1a176 176 0 0 1 15-1l8-4 3-2a163 163 0 0 1 85-11l15 2c5 0 9 2 13 3 4 2 7 3 11 3 3 1 6 2 7 4 2 3 0 6-3 7l-9 2h-3c2 18-3 38-11 55-6 11-14 21-25 27-9 6-22 9-33 10-11 0-24-2-34-7-9-4-17-13-21-22a63 63 0 0 1-6-36l3-21-7 1c-7 1-14 2-21 0l-9-1h-4v21c-4 18-13 35-25 49-6 6-13 12-21 16-12 6-25 11-39 14a94 94 0 0 1-75-16c-9-7-18-16-25-27s-10-24-11-37c0-7 1-15 3-22a123 123 0 0 0-11 5h-4c-1-2 0-4 2-5 5-6 13-9 20-12l4-1 28-10a278 278 0 0 1 74-5Zm-57 16h33a553 553 0 0 1 86 13c1 12 0 26-3 38-5 14-15 28-29 36l-22 11c-10 3-21 4-31 5-8 0-17-2-25-5l-22-10c-9-7-17-14-23-23-7-12-10-26-9-39l2-13v-6h1a129 129 0 0 1 36-7h6Zm269 4-21-3a157 157 0 0 0-56 12c-2 6-3 12-3 19-1 9-1 20 2 29 4 8 10 16 18 20 8 3 17 4 25 4 11 0 22-2 30-9 10-8 16-20 19-32 4-12 4-25 5-37l-19-3Z" fill="#000000"/></g></g></svg>