<svg xmlns="http://www.w3.org/2000/svg" viewBox="0 0 600 600" fill="none" shape-rendering="auto"><metadata xmlns:rdf="http://www.w3.org/1999/02/22-rdf-syntax-ns#" xmlns:xsi="http://www.w3.org/2001/XMLSchema-instance" xmlns:dc="http://purl.org/dc/elements/1.1/" xmlns:dcterms="http://purl.org/dc/terms/"><rdf:RDF><rdf:Description><dc:title>Lorelei Neutral</dc:title><dc:creator>Lisa Wischofsky</dc:creator><dc:source xsi:type="dcterms:URI">https://www.figma.com/community/file/1198749693280469639</dc:source><dcterms:license xsi:type="dcterms:URI">https://creativecommons.org/publicdomain/zero/1.0/</dcterms:license><dc:rights>Remix of „Lorelei Neutral” (https://www.figma.com/community/file/1198749693280469639) by „Lisa Wischofsky”, licensed under „CC0 1.0” (https://creativecommons.org/publicdomain/zero/1.0/)</dc:rights></rdf:Description></rdf:RDF></metadata><mask id="viewboxMask"><rect width="600" height="600" rx="0" ry="0" x="0" y="0" fill="#fff" /></mask><g mask="url(#viewboxMask)"><rect fill="#ffffff" width="600" height="600" x="0" y="0" /><g transform="translate(-246 -234)"><path d="M503 394c7 0 14 2 19 6 4 2 7 4 8 8 1 2 0 5-2 6-5 1-10-2-14-3l-9-1c-13-1-26 1-39 4a169 169 0 0 0-60 31c-4 2-9 5-14 4-3 0-3-4-2-7 1-6 7-11 12-16 10-9 23-15 35-20 20-9 44-14 66-12ZM659 396c7-2 14-1 20 3 4 3 8 6 9 11 1 3 1 6-2 7s-7 1-10-1c-5-3-9-6-15-6-5 0-10 1-14 3-8 4-16 11-20 19l-6 9h-3v-6c2-8 7-16 13-22 7-8 17-15 28-17Z" fill="#000000"/></g><g transform="translate(-246 -234)"><path d="M670 463c7 1 14 4 18 10 6 7 7 15 8 24 0 4-1 9-3 12-3 4-9 4-12 0-2-3-2-8-3-12 0-7-3-15-10-18 10 15 11 33 7 50-2 9-6 16-13 22-4 4-11 6-17 4-6-1-10-6-13-11-4-8-6-16-6-25l-5 14c-1 3-2 6-5 9-3-3-3-6-4-10a83 83 0 0 1 34-61c7-5 15-8 24-8ZM455 468c14 0 29 5 40 14 14 10 24 25 28 42v14c-1 1-2 2-4 1a163 163 0 0 0-17-27c1 14-2 28-11 39-6 8-15 14-26 15-11 0-21-7-27-16-8-12-9-27-6-41 2-9 7-17 13-23l-13 5c-6 5-13 9-18 16l-5 6c-3 4-9 4-12 0-3-3-3-8-1-12 6-8 13-16 22-22 11-8 24-11 37-11Z" fill="#000000"/><path d="M659 498c1 7-1 13-3 20l-5 9c-1 2-4 2-5 1l-4-7c-3-6-5-13-4-19 0-3 2-4 5-4 3 1 4 3 5 5 1-2 2-6 4-7 2-2 6-1 7 2ZM475 500c4 0 6 3 7 6 1 8-2 14-4 22 0 4-2 8-6 11-2 1-4 0-5-2l-10-15-3-8c-1-4-1-8 2-12 2-2 5-2 8 0l5 6c1-4 2-7 6-8Z" fill="#fff"/></g><g transform="translate(-246 -234)"><path d="M676 575c3-2 7 0 7 4 0 3-3 4-6 4-3-1-4-6-1-8ZM366 583c2-1 5 0 7 1 2 3 2 7 0 10-3 2-6 2-9 0-3-3-2-9 2-11ZM624 584c1-1 4-1 5 1 0 2 0 4-2 4-3 1-5-3-3-5ZM649 584c5-2 10 3 8 7s-7 6-10 3-2-8 2-10ZM475 586c2-1 6 1 5 3 1 2-1 4-4 4-3-1-3-5-1-7ZM691 587c3-2 7 0 7 3 1 3-3 5-6 4-2-1-2-5-1-7ZM412 587c5 0 8 6 6 10-1 2-4 3-6 4-2-1-5-2-6-4-2-4 2-10 6-10ZM339 595c4-1 7 1 7 5-1 4-5 5-8 3-2-2-2-6 1-8ZM670 600c4-2 8 1 8 5s-5 7-8 4c-3-2-3-7 0-9ZM450 604c3 0 3 2 5 4l-2 3c-3 3-7 1-8-2 0-3 2-6 5-5ZM384 617c4 0 7 2 8 6 0 4-3 8-7 8-3 0-6-2-7-5-1-4 2-9 6-9Z" fill="#000000"/></g><g transform="translate(-246 -234)"><path d="M632 656c-5 5-12 9-18 13-11 8-23 15-36 20-3 1-6 3-10 3l-17-2h-23l-23-2c-6 0-11-4-15-9l-13 1c-3-1-6-4-4-7s7-5 10-7c5-1 11-2 16 1 3 2 4 6 6 8l5 1c15 1 31 1 46 4 5 1 10 4 15 2 5-1 10-4 14-6 13-6 25-13 38-18 3-1 6-3 9-2Z" fill="#000000"/></g><g transform="translate(-246 -234)"><path d="M609 602c1 9-4 16-9 23-4 3-9 6-15 6s-13-3-19-5c-4-2-8-3-11-6l5-4c9-1 17 3 25 4 4 0 7-3 9-6 5-5 9-10 15-12Z" fill="#000000"/></g><g transform="translate(-246 -234)"><path fill-rule="evenodd" clip-rule="evenodd" d="M720 460c9 0 17 1 26 4 3 1 5 4 4 8l-4 3-3 3-9 4v21l-2 19-1 6c-1 7-2 14-5 21-3 10-10 17-19 22-5 3-10 5-16 6l-4 1c-12 3-25 2-37 1l-15-2c-7-1-14-6-18-12-5-4-6-9-9-15v-1c-3-7-3-15-4-23v-4a74 74 0 0 1 1-16c-8-4-17-3-25-2h-3l-12 5a169 169 0 0 1-8 52c-3 6-7 11-12 16l-1 1c-6 7-15 11-23 14a256 256 0 0 1-89 9l-27-6a53 53 0 0 1-22-17 99 99 0 0 1-18-50c-1-11-2-21-1-32-6-1-11-2-15-6 0-3 2-5 3-7l11-4 2-2c14-5 28-7 42-10l21-2 10-1c16-1 31-2 47-1h10l24 2h3c10 1 20 2 28 6l10 6 6 5 4 5 12 2h5l7 1 12 1 1-5c1-3 2-6 5-9a57 57 0 0 1 26-11l21-4a302 302 0 0 0 18-1l38-2 5 1Zm-20 12h23c-2 9-3 18-3 28l-2 19c0 8-1 17-4 25-1 6-3 11-8 15-7 6-15 8-23 11-11 1-22 1-32-1l-4-1c-6-1-13-3-16-7-5-6-7-14-9-21v-2c-2-14 0-29 2-43l1-8 9-3 8-2c7-3 13-5 20-5 13-3 25-5 38-5Zm-148 18c-3-5-7-7-12-8a554 554 0 0 0-130-1l-27 4-1 10v14c0 12 1 24 4 36 2 6 5 12 9 17l1 3 9 12c5 4 12 7 18 9a153 153 0 0 0 62 0l26-7c7-2 15-5 20-11 5-5 9-13 11-20l3-21 2-13 1-6c1-6 1-12 4-18Z" fill="#000000"/></g></g></svg>