<svg xmlns="http://www.w3.org/2000/svg" viewBox="0 0 600 600" fill="none" shape-rendering="auto"><metadata xmlns:rdf="http://www.w3.org/1999/02/22-rdf-syntax-ns#" xmlns:xsi="http://www.w3.org/2001/XMLSchema-instance" xmlns:dc="http://purl.org/dc/elements/1.1/" xmlns:dcterms="http://purl.org/dc/terms/"><rdf:RDF><rdf:Description><dc:title>Lorelei Neutral</dc:title><dc:creator>Lisa Wischofsky</dc:creator><dc:source xsi:type="dcterms:URI">https://www.figma.com/community/file/1198749693280469639</dc:source><dcterms:license xsi:type="dcterms:URI">https://creativecommons.org/publicdomain/zero/1.0/</dcterms:license><dc:rights>Remix of „Lorelei Neutral” (https://www.figma.com/community/file/1198749693280469639) by „Lisa Wischofsky”, licensed under „CC0 1.0” (https://creativecommons.org/publicdomain/zero/1.0/)</dc:rights></rdf:Description></rdf:RDF></metadata><mask id="viewboxMask"><rect width="600" height="600" rx="0" ry="0" x="0" y="0" fill="#fff" /></mask><g mask="url(#viewboxMask)"><rect fill="#ffffff" width="600" height="600" x="0" y="0" /><g transform="translate(-246 -234)"><path d="M496 375c10 1 20 4 27 11 3 3 5 7 6 11-11-5-22-6-33-6-6 1-12 4-17 7-23 12-43 29-66 41l-20 14-11 11c-1-5 1-10 2-14 4-10 11-17 19-24l24-17c13-9 27-19 41-26 9-4 18-8 28-8ZM701 411c-6 3-11 3-17 4-5 1-10 3-14 6-9 7-17 15-24 24-9 10-17 18-29 24l-7 2c-2 1-4 0-6 2-4 5-4 13-9 17-2 0-2-2-2-3v-13c1-5 3-12 7-16s9-4 13-8l15-10 23-18c6-5 13-10 20-13 10-3 21-3 30 2Z" fill="#000000"/></g><g transform="translate(-246 -234)"><path d="M681 495c3 0 7 0 10 2 2 1 2 2 1 4l-9 3-24 5c-1 6-1 13-4 19-2 5-6 9-11 9s-9-3-11-7c-3-5-5-11-6-18-4 0-9 1-12-1-1-3 3-4 5-4 12-5 26-7 39-9 7-2 15-2 22-3ZM496 502c5 0 11 0 16 3l3 3c-7 2-13 4-20 4-2 9-4 17-9 25-2 3-5 6-9 5-5-1-10-4-13-9-4-5-8-11-8-18l-56 2c-2-1-6 0-6-3 3-3 8-3 12-4l33-4c19-2 38-4 57-4Z" fill="#000000"/><path d="m650 510-6 17c-4-4-6-10-9-15l15-2ZM484 513l-6 18-4-2c-5-4-8-10-12-15l18-1h4Z" fill="#fff"/></g><g transform="translate(-246 -234)"></g><g transform="translate(-246 -234)"><path fill-rule="evenodd" clip-rule="evenodd" d="m463 648-14-4h-1c-2-1-5-1-6 1-1 1 0 3 1 3l6 3 2 1a257 257 0 0 0 73 24c0 7 2 14 7 20 5 7 12 13 21 16 10 4 21 3 31-1s18-12 22-22c2-4 2-9 2-13l18-6v-1l2-2a1497 1497 0 0 0-29 0 324 324 0 0 1-86-4l-39-11-2-1-8-3Zm69 29c1 10 9 18 18 23 12 9 32 5 40-8 3-4 4-9 5-14v-1l-26 2 1 1c0 3 1 5-1 8s-6 3-7 0c-2-3-2-6-1-9a1036 1036 0 0 0-25-2h-4Z" fill="#000000"/></g><g transform="translate(-246 -234)"><path d="M597 505h1l3 15 3 26 8 13 6 12c2 5 2 10 5 14 3 5 5 10 5 16 0 9-6 17-14 20l-19 8c-5 3-9 5-15 5-5 0-11 0-13-5-2-2 0-4 2-5l12-3 16-5 13-5c6-2 9-8 7-14l-5-8-7-17-7-19c-4-8-6-17-5-26 0-7 1-15 4-22Z" fill="#000000"/></g><g transform="translate(-246 -234)"></g></g></svg>