<?xml version="1.0" standalone="no"?>
<svg xmlns:xlink="http://www.w3.org/1999/xlink" id="wave" style="transform:rotate(0deg); transition: 0.3s" viewBox="0 0 1440 490" version="1.1" xmlns="http://www.w3.org/2000/svg"><defs><linearGradient id="sw-gradient-0" x1="0" x2="0" y1="1" y2="0"><stop stop-color="rgba(56, 161, 148, 1)" offset="0%"/><stop stop-color="rgba(56, 161, 148, 1)" offset="100%"/></linearGradient></defs><path style="transform:translate(0, 0px); opacity:1" fill="url(#sw-gradient-0)" d="M0,98L34.3,106.2C68.6,114,137,131,206,187.8C274.3,245,343,343,411,343C480,343,549,245,617,228.7C685.7,212,754,278,823,261.3C891.4,245,960,147,1029,155.2C1097.1,163,1166,278,1234,277.7C1302.9,278,1371,163,1440,163.3C1508.6,163,1577,278,1646,310.3C1714.3,343,1783,294,1851,294C1920,294,1989,343,2057,375.7C2125.7,408,2194,425,2263,375.7C2331.4,327,2400,212,2469,196C2537.1,180,2606,261,2674,277.7C2742.9,294,2811,245,2880,236.8C2948.6,229,3017,261,3086,277.7C3154.3,294,3223,294,3291,253.2C3360,212,3429,131,3497,89.8C3565.7,49,3634,49,3703,57.2C3771.4,65,3840,82,3909,81.7C3977.1,82,4046,65,4114,106.2C4182.9,147,4251,245,4320,285.8C4388.6,327,4457,310,4526,294C4594.3,278,4663,261,4731,236.8C4800,212,4869,180,4903,163.3L4937.1,147L4937.1,490L4902.9,490C4868.6,490,4800,490,4731,490C4662.9,490,4594,490,4526,490C4457.1,490,4389,490,4320,490C4251.4,490,4183,490,4114,490C4045.7,490,3977,490,3909,490C3840,490,3771,490,3703,490C3634.3,490,3566,490,3497,490C3428.6,490,3360,490,3291,490C3222.9,490,3154,490,3086,490C3017.1,490,2949,490,2880,490C2811.4,490,2743,490,2674,490C2605.7,490,2537,490,2469,490C2400,490,2331,490,2263,490C2194.3,490,2126,490,2057,490C1988.6,490,1920,490,1851,490C1782.9,490,1714,490,1646,490C1577.1,490,1509,490,1440,490C1371.4,490,1303,490,1234,490C1165.7,490,1097,490,1029,490C960,490,891,490,823,490C754.3,490,686,490,617,490C548.6,490,480,490,411,490C342.9,490,274,490,206,490C137.1,490,69,490,34,490L0,490Z"/><defs><linearGradient id="sw-gradient-1" x1="0" x2="0" y1="1" y2="0"><stop stop-color="rgba(16, 162, 102, 1)" offset="0%"/><stop stop-color="rgba(16, 162, 102, 1)" offset="100%"/></linearGradient></defs><path style="transform:translate(0, 50px); opacity:0.9" fill="url(#sw-gradient-1)" d="M0,392L34.3,367.5C68.6,343,137,294,206,228.7C274.3,163,343,82,411,114.3C480,147,549,294,617,318.5C685.7,343,754,245,823,245C891.4,245,960,343,1029,334.8C1097.1,327,1166,212,1234,163.3C1302.9,114,1371,131,1440,122.5C1508.6,114,1577,82,1646,65.3C1714.3,49,1783,49,1851,89.8C1920,131,1989,212,2057,220.5C2125.7,229,2194,163,2263,130.7C2331.4,98,2400,98,2469,98C2537.1,98,2606,98,2674,81.7C2742.9,65,2811,33,2880,24.5C2948.6,16,3017,33,3086,57.2C3154.3,82,3223,114,3291,122.5C3360,131,3429,114,3497,122.5C3565.7,131,3634,163,3703,155.2C3771.4,147,3840,98,3909,65.3C3977.1,33,4046,16,4114,57.2C4182.9,98,4251,196,4320,220.5C4388.6,245,4457,196,4526,196C4594.3,196,4663,245,4731,269.5C4800,294,4869,294,4903,294L4937.1,294L4937.1,490L4902.9,490C4868.6,490,4800,490,4731,490C4662.9,490,4594,490,4526,490C4457.1,490,4389,490,4320,490C4251.4,490,4183,490,4114,490C4045.7,490,3977,490,3909,490C3840,490,3771,490,3703,490C3634.3,490,3566,490,3497,490C3428.6,490,3360,490,3291,490C3222.9,490,3154,490,3086,490C3017.1,490,2949,490,2880,490C2811.4,490,2743,490,2674,490C2605.7,490,2537,490,2469,490C2400,490,2331,490,2263,490C2194.3,490,2126,490,2057,490C1988.6,490,1920,490,1851,490C1782.9,490,1714,490,1646,490C1577.1,490,1509,490,1440,490C1371.4,490,1303,490,1234,490C1165.7,490,1097,490,1029,490C960,490,891,490,823,490C754.3,490,686,490,617,490C548.6,490,480,490,411,490C342.9,490,274,490,206,490C137.1,490,69,490,34,490L0,490Z"/><defs><linearGradient id="sw-gradient-2" x1="0" x2="0" y1="1" y2="0"><stop stop-color="rgba(92, 193, 188, 1)" offset="0%"/><stop stop-color="rgba(92, 193, 188, 1)" offset="100%"/></linearGradient></defs><path style="transform:translate(0, 100px); opacity:0.8" fill="url(#sw-gradient-2)" d="M0,441L34.3,367.5C68.6,294,137,147,206,98C274.3,49,343,98,411,130.7C480,163,549,180,617,155.2C685.7,131,754,65,823,57.2C891.4,49,960,98,1029,147C1097.1,196,1166,245,1234,253.2C1302.9,261,1371,229,1440,253.2C1508.6,278,1577,359,1646,400.2C1714.3,441,1783,441,1851,408.3C1920,376,1989,310,2057,277.7C2125.7,245,2194,245,2263,204.2C2331.4,163,2400,82,2469,89.8C2537.1,98,2606,196,2674,261.3C2742.9,327,2811,359,2880,334.8C2948.6,310,3017,229,3086,220.5C3154.3,212,3223,278,3291,253.2C3360,229,3429,114,3497,65.3C3565.7,16,3634,33,3703,40.8C3771.4,49,3840,49,3909,73.5C3977.1,98,4046,147,4114,155.2C4182.9,163,4251,131,4320,130.7C4388.6,131,4457,163,4526,196C4594.3,229,4663,261,4731,261.3C4800,261,4869,229,4903,212.3L4937.1,196L4937.1,490L4902.9,490C4868.6,490,4800,490,4731,490C4662.9,490,4594,490,4526,490C4457.1,490,4389,490,4320,490C4251.4,490,4183,490,4114,490C4045.7,490,3977,490,3909,490C3840,490,3771,490,3703,490C3634.3,490,3566,490,3497,490C3428.6,490,3360,490,3291,490C3222.9,490,3154,490,3086,490C3017.1,490,2949,490,2880,490C2811.4,490,2743,490,2674,490C2605.7,490,2537,490,2469,490C2400,490,2331,490,2263,490C2194.3,490,2126,490,2057,490C1988.6,490,1920,490,1851,490C1782.9,490,1714,490,1646,490C1577.1,490,1509,490,1440,490C1371.4,490,1303,490,1234,490C1165.7,490,1097,490,1029,490C960,490,891,490,823,490C754.3,490,686,490,617,490C548.6,490,480,490,411,490C342.9,490,274,490,206,490C137.1,490,69,490,34,490L0,490Z"/></svg>