<svg xmlns="http://www.w3.org/2000/svg" viewBox="0 0 560 560" fill="none" shape-rendering="auto"><metadata xmlns:rdf="http://www.w3.org/1999/02/22-rdf-syntax-ns#" xmlns:xsi="http://www.w3.org/2001/XMLSchema-instance" xmlns:dc="http://purl.org/dc/elements/1.1/" xmlns:dcterms="http://purl.org/dc/terms/"><rdf:RDF><rdf:Description><dc:title>Notionists</dc:title><dc:creator>Zoish</dc:creator><dc:source xsi:type="dcterms:URI">https://heyzoish.gumroad.com/l/notionists</dc:source><dcterms:license xsi:type="dcterms:URI">https://creativecommons.org/publicdomain/zero/1.0/</dcterms:license><dc:rights>Remix of „Notionists” (https://heyzoish.gumroad.com/l/notionists) by „Zoish”, licensed under „CC0 1.0” (https://creativecommons.org/publicdomain/zero/1.0/)</dc:rights></rdf:Description></rdf:RDF></metadata><mask id="viewboxMask"><rect width="560" height="560" rx="0" ry="0" x="0" y="0" fill="#fff" /></mask><g mask="url(#viewboxMask)"><rect fill="#ffffff" width="560" height="560" x="0" y="0" /><g transform="translate(136 328)"><path d="M182.3 95.7c-29.2 14-65.1 3-84.2-16-2.3-2.3-3.8-5.6-5.3-8.6-1-2.3-1.6-5 .7-7.1 2.2-2.1 4.7-1.8 7.1-.7 2.6 1.3 5.6 2.5 7.5 4.5 12.1 13 28 16.4 44.7 19C162 88 169 82.3 177 80.2c5.3-1.4 11-9 15-.7 3.3 6.8-1.3 12.9-9.7 16ZM66.6 57.4C71 45.2 80.3 40.6 90.8 37.9c5-1.3 10.8-1.7 13 4.3 2.4 7-3.2 10.9-8.3 12-7.3 1.4-12 4.6-15.4 11.2-2.2 4.3-5.7 9.7-11.7 7-7.2-3-3.8-9-1.8-15Z" fill="#000"/></g><g transform="translate(246 125)"><path d="M53.4 96.7c.2-5.7.5-10.4.3-15-.2-7.3 3-10.2 10.5-8.5 2.8 10.7 2 22 1.1 32.7-1.8 19.6 7.7 32 23 41.6 19.6 12.3 25.6 32.7 13.4 48.6-19.8 25.4-56.3 21.8-75-4.1-2.2-3.2-1.4-7.5 0-11.2.9-2.3 1.9-5 5-5 3.8-.2 5.2 2.2 5.6 5.5 1.8 12.3 10.8 16.9 21.2 18.8 13 2.4 24.5-.5 32.3-12.4 7-10.7 5-20.9-6-26.9-25.4-13.7-35.9-34.6-31.4-64Z" fill="#000"/></g><g transform="translate(-45 137)"><path d="M409.2 75.7c13.1.3 25.4 1 37.7 2.5 3 .3 4.9 3.3 5 6.6 0 3.4-1.8 5.7-4.8 7-11.1 4.9-22 8.3-33.7.2-6.5-4.4-8.9-8.6-4.2-16.3ZM254.7 78.4c6.2 3.3 5.2 7 2.1 10.8-6.5 8-28.2 10-36.4 3.5-4.7-3.8-7.3-8.6-4.4-14.4 3-6 8.2-5 13-2.5 8 4 16.4 3 25.7 2.6Z" fill="#000"/></g><g transform="translate(-45 137)"></g><g transform="translate(119 114)"><path d="M131.2 43.2c-5.6 16.8-6.6 15.4-23 11.6-26.2-6-52.7-19.2-80.3-4.3-2 1.1-5 1-7.6.8-3.6-.2-8.2 1.3-10.1-3.3-2.1-5 1.5-8.3 5.3-10.3C35.2 27.7 53 13.4 77.9 16c12.8 1.3 26-2.8 39.3-2.4 18.8.7 22.4 5.7 16 23.9l-2 5.8ZM298.7 21.8c9.6 6.6 12.5 16.8 18.3 25a7 7 0 0 1-.6 9.4c-2.4 2.7-5.4 2.8-8.1 1.2-19.1-11-38.9-6.4-58-1.2-10.2 2.7-14.6-.8-17.2-9.2-1.7-5.7-2.9-11.5-3.6-17.4-1.3-9.8 6.9-11.9 13-12.2 18.5-.9 37.4-4.5 56.2 4.4Z" fill="#000"/></g></g></svg>